<svg width="18.136719" height="19.555664" viewBox="0 0 18.1367 19.5557" fill="none" xmlns="http://www.w3.org/2000/svg" xmlns:xlink="http://www.w3.org/1999/xlink">
	<desc>
			Created with Pixso.
	</desc>
	<defs/>
	<path id="Vector" d="M14.3594 15.481C14.3594 15.6973 14.4395 15.9043 14.5801 16.0571C14.7227 16.21 14.9141 16.2959 15.1152 16.2959C15.3164 16.2959 15.5078 16.21 15.6484 16.0571C15.791 15.9043 15.8711 15.6973 15.8711 15.481L15.8711 4.07373C15.8711 3.85742 15.791 3.65039 15.6484 3.49756C15.5078 3.34473 15.3164 3.25879 15.1152 3.25879C14.9141 3.25879 14.7227 3.34473 14.5801 3.49756C14.4395 3.65039 14.3594 3.85742 14.3594 4.07373L14.3594 15.481ZM8.53711 5.74414C8.4668 5.81982 8.41211 5.90967 8.37305 6.0083C8.33594 6.10742 8.31641 6.21338 8.31641 6.32031C8.31641 6.42773 8.33594 6.53369 8.37305 6.63232C8.41211 6.73145 8.4668 6.82129 8.53711 6.89697L10.4551 8.9624L3.02344 8.9624C2.82227 8.9624 2.63086 9.04834 2.48828 9.20117C2.34766 9.354 2.26758 9.56104 2.26758 9.77734C2.26758 9.99365 2.34766 10.2007 2.48828 10.3535C2.63086 10.5063 2.82227 10.5923 3.02344 10.5923L10.4551 10.5923L8.53711 12.6587C8.39648 12.8115 8.31641 13.0186 8.31641 13.2349C8.31641 13.4512 8.39648 13.6582 8.53906 13.811C8.67969 13.9639 8.87305 14.0498 9.07227 14.0498C9.27344 14.0493 9.46484 13.9634 9.60742 13.8105L12.8125 10.3535C12.9551 10.2007 13.0352 9.99316 13.0352 9.77734C13.0352 9.56104 12.9551 9.354 12.8125 9.20117L9.60742 5.74414C9.53711 5.66846 9.45312 5.60791 9.36133 5.56689C9.26953 5.52588 9.17188 5.50488 9.07227 5.50488C8.97266 5.50488 8.875 5.52588 8.7832 5.56689C8.69141 5.60791 8.60742 5.66846 8.53711 5.74414Z" fill="#FFFFFF" fill-opacity="1.000000" fill-rule="nonzero"/>
</svg>
