<svg width="19.533203" height="19.881348" viewBox="0 0 19.5332 19.8813" fill="none" xmlns="http://www.w3.org/2000/svg" xmlns:xlink="http://www.w3.org/1999/xlink">
	<desc>
			Created with Pixso.
	</desc>
	<defs/>
	<path id="Vector" d="M4.07031 4.1416C4.07031 3.92188 3.98438 3.71094 3.83203 3.55566C3.67969 3.40039 3.47266 3.31299 3.25586 3.31299C3.04102 3.31299 2.83398 3.40039 2.67969 3.55566C2.52734 3.71094 2.44141 3.92188 2.44141 4.1416L2.44141 15.7388C2.44141 15.9585 2.52734 16.1694 2.67969 16.3247C2.83398 16.48 3.04102 16.5674 3.25586 16.5674C3.47266 16.5674 3.67969 16.48 3.83203 16.3247C3.98438 16.1694 4.07031 15.9585 4.07031 15.7388L4.07031 4.1416ZM10.3398 14.0405C10.4141 13.9639 10.4746 13.8726 10.5156 13.772C10.5566 13.6714 10.5781 13.5635 10.5781 13.4546C10.5781 13.3457 10.5566 13.2378 10.5156 13.1377C10.4746 13.0371 10.4141 12.9453 10.3398 12.8687L8.27539 10.7686L16.2773 10.7686C16.4941 10.7686 16.7012 10.6812 16.8535 10.5259C17.0059 10.3706 17.0918 10.1597 17.0918 9.94043C17.0918 9.7207 17.0059 9.50977 16.8535 9.35449C16.7012 9.19922 16.4941 9.11182 16.2773 9.11182L8.27539 9.11182L10.3398 7.01123C10.4922 6.85547 10.5781 6.64453 10.5781 6.4248C10.5781 6.20508 10.4922 5.99463 10.3379 5.83936C10.1855 5.68408 9.97852 5.59668 9.76367 5.59668C9.54688 5.59668 9.33984 5.68408 9.1875 5.83984L5.73438 9.35449C5.58203 9.50977 5.49609 9.7207 5.49609 9.94043C5.49609 10.1597 5.58203 10.3706 5.73438 10.5259L9.1875 14.0405C9.26367 14.1177 9.35352 14.1787 9.45117 14.2207C9.55078 14.2622 9.65625 14.2837 9.76367 14.2837C9.87109 14.2837 9.97656 14.2622 10.0742 14.2207C10.1738 14.1787 10.2637 14.1177 10.3398 14.0405Z" fill="#FFFFFF" fill-opacity="1.000000" fill-rule="nonzero"/>
</svg>
