<svg width="340.000000" height="242.000000" viewBox="0 0 340 242" fill="none" xmlns="http://www.w3.org/2000/svg" xmlns:xlink="http://www.w3.org/1999/xlink">
	<desc>
			Created with Pixso.
	</desc>
	<defs/>
	<path id="Exclude" d="M0 0L340 0L340 242L0 242L0 0ZM0.800781 7.62549L26.5371 7.62549C28.7148 7.62549 30.4805 9.39111 30.4805 11.5684C30.4805 13.7461 28.7148 15.5117 26.5371 15.5117L0.800781 15.5117L0.800781 7.62549ZM44.6836 7.67236L71.4551 7.67236C73.6055 7.67236 75.3516 9.41699 75.3516 11.5688C75.3516 13.7207 73.6055 15.4653 71.4551 15.4653L44.6836 15.4653C42.5312 15.4653 40.7871 13.7207 40.7871 11.5688C40.7871 9.41699 42.5312 7.67236 44.6836 7.67236ZM89.6172 7.67236L116.389 7.67236C118.539 7.67236 120.285 9.41699 120.285 11.5688C120.285 13.7207 118.539 15.4653 116.389 15.4653L89.6172 15.4653C87.4648 15.4653 85.7207 13.7207 85.7207 11.5688C85.7207 9.41699 87.4648 7.67236 89.6172 7.67236ZM134.549 7.67236L161.32 7.67236C163.471 7.67236 165.217 9.41699 165.217 11.5688C165.217 13.7207 163.471 15.4653 161.32 15.4653L134.549 15.4653C132.396 15.4653 130.652 13.7207 130.652 11.5688C130.652 9.41699 132.396 7.67236 134.549 7.67236ZM179.482 7.67236L206.254 7.67236C208.404 7.67236 210.15 9.41699 210.15 11.5688C210.15 13.7207 208.404 15.4653 206.254 15.4653L179.482 15.4653C177.33 15.4653 175.586 13.7207 175.586 11.5688C175.586 9.41699 177.33 7.67236 179.482 7.67236ZM224.414 7.67236L251.186 7.67236C253.336 7.67236 255.082 9.41699 255.082 11.5688C255.082 13.7207 253.336 15.4653 251.186 15.4653L224.414 15.4653C222.262 15.4653 220.518 13.7207 220.518 11.5688C220.518 9.41699 222.262 7.67236 224.414 7.67236ZM269.346 7.67236L296.117 7.67236C298.268 7.67236 300.014 9.41699 300.014 11.5688C300.014 13.7207 298.268 15.4653 296.117 15.4653L269.346 15.4653C267.193 15.4653 265.449 13.7207 265.449 11.5688C265.449 9.41699 267.193 7.67236 269.346 7.67236ZM314.264 7.62549L340 7.62549L340 15.5117L314.264 15.5117C312.086 15.5117 310.32 13.7461 310.32 11.5684C310.32 9.39111 312.086 7.62549 314.264 7.62549Z" clip-rule="evenodd" fill="#E7E3D8" fill-opacity="1.000000" fill-rule="evenodd"/>
</svg>
