<svg width="18.000000" height="18.000000" viewBox="0 0 18 18" fill="none" xmlns="http://www.w3.org/2000/svg" xmlns:xlink="http://www.w3.org/1999/xlink">
	<desc>
			Created with Pixso.
	</desc>
	<defs/>
	<path id="Vector" d="M0 3C0 2.20459 0.316406 1.44141 0.878906 0.878906C1.44141 0.315918 2.20508 0 3 0L15 0C15.7949 0 16.5586 0.315918 17.1211 0.878906C17.6836 1.44141 18 2.20459 18 3L18 15C18 15.7954 17.6836 16.5586 17.1211 17.1211C16.5586 17.6841 15.7949 18 15 18L3 18C2.20508 18 1.44141 17.6841 0.878906 17.1211C0.316406 16.5586 0 15.7954 0 15L0 3ZM11 11C11 10.7349 11.1055 10.4805 11.293 10.293C11.4805 10.1055 11.7344 10 12 10L16 10L16 3C16 2.73486 15.8945 2.48047 15.707 2.29297C15.5195 2.10547 15.2656 2 15 2L3 2C2.73438 2 2.48047 2.10547 2.29297 2.29297C2.10547 2.48047 2 2.73486 2 3L2 10L6 10C6.26562 10 6.51953 10.1055 6.70703 10.293C6.89453 10.4805 7 10.7349 7 11C7 11.5303 7.21094 12.0391 7.58594 12.4141C7.96094 12.7891 8.46875 13 9 13C9.53125 13 10.0391 12.7891 10.4141 12.4141C10.7891 12.0391 11 11.5303 11 11Z" fill="#202020" fill-opacity="1.000000" fill-rule="evenodd"/>
</svg>
