<svg width="19.556641" height="19.557129" viewBox="0 0 19.5566 19.5571" fill="none" xmlns="http://www.w3.org/2000/svg" xmlns:xlink="http://www.w3.org/1999/xlink">
	<desc>
			Created with Pixso.
	</desc>
	<defs/>
	<path id="Vector" d="M13.3145 0.586426L18.9707 6.24268C19.1562 6.42822 19.3047 6.64893 19.4043 6.8916C19.5059 7.13428 19.5566 7.39453 19.5566 7.65723C19.5566 7.91992 19.5059 8.17969 19.4043 8.42285C19.3047 8.66553 19.1562 8.88574 18.9707 9.07178L9.07031 18.9717C8.69531 19.3467 8.1875 19.5571 7.65625 19.5571C7.12695 19.5571 6.61719 19.3467 6.24219 18.9717L0.585938 13.3135C0.210938 12.9385 0 12.4297 0 11.8994C0 11.3691 0.210938 10.8608 0.585938 10.4854L10.4863 0.585449C10.8613 0.210449 11.3691 0 11.9004 0C12.4297 0 12.9395 0.210449 13.3145 0.585449L13.3145 0.586426ZM18.9707 13.3145C19.1582 13.502 19.2637 13.7563 19.2637 14.0215C19.2637 14.2866 19.1582 14.541 18.9707 14.7285L14.7285 18.9707C14.541 19.1582 14.2871 19.2637 14.0215 19.2637C13.7559 19.2637 13.502 19.1587 13.3145 18.9712C13.127 18.7837 13.0215 18.5293 13.0215 18.2642C13.0215 17.9985 13.127 17.7441 13.3145 17.5566L17.5566 13.3145C17.7441 13.127 17.998 13.022 18.2637 13.022C18.5293 13.022 18.7832 13.127 18.9707 13.3145ZM6.5957 11.5464L5.88867 12.2534C5.79492 12.3472 5.74414 12.4746 5.74414 12.6069C5.74414 12.7397 5.79492 12.8667 5.88867 12.9604L6.5957 13.6675C6.68945 13.7612 6.81836 13.814 6.94922 13.814C7.08203 13.814 7.20898 13.7612 7.30273 13.6675L8.00977 12.9604C8.10352 12.8667 8.15625 12.7397 8.15625 12.6069C8.15625 12.4746 8.10352 12.3472 8.00977 12.2534L7.30273 11.5464C7.20898 11.4526 7.08203 11.4004 6.94922 11.4004C6.81836 11.4004 6.68945 11.4526 6.5957 11.5464ZM6.24219 0.586426C6.42969 0.773926 6.53516 1.02832 6.53516 1.29346C6.53516 1.55859 6.42969 1.81299 6.24219 2.00049L2 6.24268C1.9082 6.33545 1.79688 6.40918 1.67578 6.45947C1.55469 6.50977 1.42383 6.53564 1.29297 6.53564C1.16211 6.53564 1.03125 6.50977 0.910156 6.45996C0.789062 6.40967 0.679688 6.33594 0.585938 6.24316C0.492188 6.15039 0.419922 6.04004 0.369141 5.91846C0.318359 5.79736 0.292969 5.66748 0.292969 5.53613C0.292969 5.40479 0.318359 5.27441 0.369141 5.15332C0.419922 5.03174 0.492188 4.92139 0.585938 4.82861L4.82812 0.586426C5.01562 0.398926 5.26953 0.293945 5.53516 0.293945C5.80078 0.293945 6.05469 0.398926 6.24219 0.586426Z" fill="#202020" fill-opacity="1.000000" fill-rule="evenodd"/>
</svg>
