<svg width="37.585938" height="48.668945" viewBox="0 0 37.5859 48.6689" fill="none" xmlns="http://www.w3.org/2000/svg" xmlns:xlink="http://www.w3.org/1999/xlink">
	<desc>
			Created with Pixso.
	</desc>
	<defs/>
	<path id="Vector" d="M16.0957 7.08252Q16.0957 8.14795 16.4727 9.05518Q16.8438 9.94287 17.5762 10.6797Q18.3242 11.4316 19.2305 11.8027Q20.1113 12.165 21.1426 12.165Q22.1738 12.165 23.0566 11.8018Q23.9609 11.4307 24.707 10.6802Q25.4395 9.94531 25.8086 9.05908Q26.1895 8.15039 26.1895 7.08252Q26.1895 6.01709 25.8105 5.10938Q25.4414 4.22168 24.707 3.48535Q23.959 2.7334 23.0547 2.36182Q22.1719 2 21.1426 2Q20.1113 2 19.2305 2.36182Q18.3242 2.7334 17.5762 3.48535Q16.8438 4.22168 16.4727 5.10938Q16.0957 6.01709 16.0957 7.08252ZM26.0352 12.1802C24.7676 13.4092 23.043 14.165 21.1426 14.165C19.2344 14.165 17.5039 13.4028 16.2344 12.165C15.8652 11.8057 15.5371 11.4062 15.252 10.9736C14.5215 9.85693 14.0957 8.51953 14.0957 7.08252C14.0957 5.64551 14.5215 4.30811 15.252 3.19189C16.5137 1.26904 18.6797 0 21.1426 0C25.0332 0 28.1895 3.17139 28.1895 7.08252C28.1895 9.08447 27.3633 10.8921 26.0352 12.1802ZM12.9375 3.19189C11.6758 1.26904 9.50977 0 7.04688 0C3.15625 0 0 3.17139 0 7.08252C0 9.08398 0.826172 10.8921 2.1543 12.1802C3.42188 13.4087 5.14648 14.165 7.04688 14.165L2.56641 14.165C2.26562 14.165 1.99609 14.2969 1.81445 14.5063C1.66016 14.6821 1.56641 14.9126 1.56641 15.165L1.56641 27.3296C1.56641 27.8818 2.01367 28.3296 2.56641 28.3296L10.8359 28.3296C11.3105 28.3296 11.6914 28.7012 11.8008 29.1616C11.8301 29.2852 11.8633 29.4062 11.9004 29.5239C11.9043 29.5303 11.9062 29.5366 11.9082 29.543C12.0293 29.9126 12.1934 30.2534 12.3926 30.5557C12.5195 30.7466 12.6602 30.9224 12.8125 31.0796C12.9219 31.1914 12.8477 31.4004 12.6914 31.4004C12.627 31.4004 12.5703 31.438 12.543 31.4961L12.1699 32.3291L12.1445 32.3843L9.2168 38.9053L9.10938 39.1436L7.13281 43.5435L6.69141 44.5288C6.48047 44.999 6.82422 45.5308 7.33984 45.5308C7.61914 45.5308 7.87305 45.3667 7.98828 45.1113L8.42773 44.1299L9.65039 41.4092C9.80859 41.0537 10.1602 40.8237 10.5488 40.8188L10.5625 40.8188L13.1465 40.8188C13.3945 40.8188 13.623 40.9097 13.7988 41.0601C13.8438 41.0996 13.8867 41.1436 13.9258 41.1909C14.0645 41.3623 14.1465 41.5811 14.1465 41.8188L14.1465 47.8887C14.1465 48.3198 14.4961 48.6689 14.9277 48.6689C15.3574 48.6689 15.707 48.3198 15.707 47.8887L15.707 41.8188C15.707 41.5815 15.791 41.3643 15.9277 41.1929C15.9668 41.1445 16.0098 41.1001 16.0566 41.0601C16.2305 40.9097 16.459 40.8188 16.707 40.8188L19.2227 40.8188C19.2285 40.8188 19.2344 40.8188 19.2402 40.8188L19.2441 40.8188C19.6309 40.8271 19.9805 41.0586 20.1367 41.4146L21.3359 44.125L21.7695 45.1069C21.8828 45.3647 22.1387 45.5308 22.4199 45.5308C22.9355 45.5308 23.2793 45.002 23.0703 44.5312L22.6348 43.5444L20.6934 39.1519L20.5898 38.917L17.707 32.396L17.6641 32.2998L17.3301 31.5449C17.291 31.457 17.2051 31.4004 17.1074 31.4004C16.875 31.4004 16.7578 31.0801 16.9082 30.9023C17.0566 30.7261 17.1914 30.5312 17.3105 30.3208C17.459 30.0605 17.5801 29.7764 17.6738 29.4736C17.6758 29.4688 17.6777 29.4634 17.6797 29.4585C17.709 29.3613 17.7363 29.2627 17.7598 29.1616C17.8672 28.7012 18.25 28.3296 18.7227 28.3296L25.623 28.3296C26.1758 28.3296 26.623 27.8818 26.623 27.3296L26.623 15.165C26.623 15.0537 26.6055 14.9468 26.5723 14.8467C26.5293 14.7202 26.4629 14.605 26.377 14.5063C26.1934 14.2969 25.9238 14.165 25.623 14.165L7.04688 14.165C8.95508 14.165 10.6875 13.4028 11.9551 12.165C12.3242 11.8057 12.6543 11.4062 12.9375 10.9736C13.668 9.85693 14.0957 8.52002 14.0957 7.08252C14.0957 5.64551 13.668 4.30811 12.9375 3.19189ZM3.56641 16.165L24.623 16.165L24.623 26.3296L18.8203 26.3296Q17.6953 26.3296 16.959 26.8662Q16.1309 27.4707 15.7988 28.7578Q15.666 29.2739 15.3828 29.6094Q15.2891 29.7178 15.2129 29.8291Q15.1523 29.8481 15.0918 29.8696Q14.9316 29.9268 14.791 29.9966Q14.5938 29.9165 14.4082 29.8657Q14.332 29.7734 14.2461 29.6831Q13.8926 29.3228 13.748 28.7026Q13.4551 27.4604 12.6699 26.8687Q11.957 26.3296 10.8359 26.3296L3.56641 26.3296L3.56641 16.165ZM13.707 32.3784L13.2832 33.3213L13.2754 33.3394L13.1406 33.6362L12.1445 35.854L11.2539 37.8398C11.0996 38.1812 11.1543 38.5459 11.3438 38.8188C11.3633 38.8481 11.3848 38.877 11.4082 38.9043C11.5898 39.1128 11.8555 39.2495 12.166 39.2495L13.1445 39.2495C13.3789 39.2495 13.5957 39.1689 13.7656 39.0337C13.8125 38.9956 13.8574 38.9531 13.8984 38.9072C14.0527 38.7314 14.1445 38.5015 14.1445 38.2495L14.1445 31.9795C14.1445 31.9253 14.1074 31.8784 14.0586 31.8574C14.002 31.834 13.9395 31.8594 13.9141 31.915L13.707 32.3784ZM15.707 32.9585L15.707 38.251C15.707 38.5024 15.7988 38.7324 15.9531 38.9082C15.9922 38.9541 16.0371 38.9966 16.0859 39.0352C16.2559 39.1704 16.4727 39.251 16.707 39.251L17.6426 39.251C17.9531 39.251 18.2188 39.1147 18.3984 38.9067C18.4219 38.8789 18.4453 38.8491 18.4668 38.8188C18.6523 38.5474 18.707 38.1865 18.5566 37.8467L17.707 35.9214L16.6562 33.5474L16.5703 33.3506L16.5605 33.3301L16.1445 32.3892L15.8867 31.8032C15.8652 31.7573 15.8125 31.7363 15.7656 31.7534C15.7305 31.7656 15.707 31.7988 15.707 31.8354L15.707 32.9585ZM7.04688 12.165Q6.01758 12.165 5.13477 11.8027Q4.23047 11.4316 3.48242 10.6797Q2.75 9.94287 2.37891 9.05518Q2 8.14795 2 7.08252Q2 6.01709 2.37891 5.10938Q2.75 4.22168 3.48242 3.48535Q4.23047 2.7334 5.13477 2.36182Q6.01758 2 7.04688 2Q8.07812 2 8.95898 2.36182Q9.86523 2.7334 10.6133 3.48535Q11.3457 4.22168 11.7168 5.10938Q12.0957 6.01709 12.0957 7.08252Q12.0957 8.15039 11.7148 9.05908Q11.3438 9.94531 10.6133 10.6802Q9.86523 11.4307 8.96289 11.8018Q8.08008 12.165 7.04688 12.165ZM28.623 15.5918C28.3555 15.7754 28.1895 16.082 28.1895 16.416L28.1895 21.3599C28.1895 21.6938 28.3555 22.0005 28.623 22.1841C28.6836 22.2251 28.748 22.2603 28.8164 22.2876L35.8398 25.1099C35.959 25.1577 36.0859 25.186 36.2129 25.1704C36.9883 25.0747 37.5859 24.4126 37.5859 23.6099L37.5859 14.1665C37.5859 13.3633 36.9883 12.7002 36.2129 12.6045C36.0859 12.5889 35.959 12.6172 35.8398 12.6646L28.8164 15.4883C28.748 15.5161 28.6836 15.5508 28.623 15.5918ZM30.1895 20.6841L35.5859 22.8521L35.5859 14.9224L30.1895 17.0918L30.1895 20.6841Z" fill="#000000" fill-opacity="1.000000" fill-rule="evenodd"/>
</svg>
