<svg width="38.804688" height="36.428223" viewBox="0 0 38.8047 36.4282" fill="none" xmlns="http://www.w3.org/2000/svg" xmlns:xlink="http://www.w3.org/1999/xlink">
	<desc>
			Created with Pixso.
	</desc>
	<defs/>
	<path id="Ellipse 31" d="M17.4727 15.6855L17.4824 15.6587C17.9824 15.4077 18.5742 15.604 18.8242 16.1045C19.0742 16.605 18.8789 17.1958 18.3789 17.4468L18.3516 17.4375L17.4727 15.6855ZM19.5625 1.70459L19.5898 1.69971C20.0469 2.02441 20.1504 2.63818 19.8242 3.09424C19.5 3.55078 18.8867 3.6543 18.4297 3.32959L18.4258 3.30176L19.5625 1.70459Z" fill="#202020" fill-opacity="1.000000" fill-rule="nonzero"/>
	<path id="Ellipse 31" d="M18.3789 17.4468Q17.4336 17.9199 16.4082 18.1655Q15.3516 18.418 14.2578 18.418Q12.3848 18.418 10.6738 17.6938Q9.01953 16.9946 7.74609 15.7207Q6.47266 14.4463 5.77344 12.7939Q5.04883 11.0815 5.04883 9.20898Q5.04883 7.33594 5.77344 5.62402Q6.47266 3.97119 7.74609 2.69727Q9.01953 1.42334 10.6738 0.724121Q12.3848 0 14.2578 0Q15.7227 0 17.1035 0.44873Q18.4414 0.882812 19.5898 1.69971L18.4297 3.32959Q17.5312 2.68994 16.4863 2.35059Q15.4062 2 14.2578 2Q12.791 2 11.4512 2.56592Q10.1582 3.11328 9.16016 4.11133Q8.16211 5.10986 7.61523 6.40332Q7.04883 7.7417 7.04883 9.20898Q7.04883 10.6763 7.61523 12.0146Q8.16211 13.3081 9.16016 14.3062Q10.1582 15.3047 11.4512 15.8516Q12.791 16.418 14.2578 16.418Q15.9668 16.418 17.4824 15.6587L18.3789 17.4468ZM17.4727 15.6855L17.4824 15.6587C17.9824 15.4077 18.5742 15.604 18.8242 16.1045C19.0742 16.605 18.8789 17.1958 18.3789 17.4468L18.3516 17.4375L17.4727 15.6855ZM19.5625 1.70459L19.5898 1.69971C20.0469 2.02441 20.1504 2.63818 19.8242 3.09424C19.5 3.55078 18.8867 3.6543 18.4297 3.32959L18.4258 3.30176L19.5625 1.70459Z" fill="#202020" fill-opacity="1.000000" fill-rule="evenodd"/>
	<path id="Vector 25" d="M22.6836 10.7212C22.6836 5.59082 26.8418 1.43213 31.9727 1.43213C35.1934 1.43213 37.8047 4.04346 37.8047 7.26465C37.8047 10.4858 35.1934 13.0972 31.9727 13.0972L27.2988 13.0972C26.418 13.0972 25.5742 13.4473 24.9512 14.0703C24.1152 14.9067 22.6836 14.3145 22.6836 13.1309L22.6836 10.7212Z" stroke="#202020" stroke-opacity="1.000000" stroke-width="2.000000"/>
	<path id="Rectangle 181" d="M3.84766 23.0347C1.72266 23.0347 0 24.7568 0 26.8818C0 32.1543 4.27344 36.4282 9.54688 36.4282L17.6719 36.4282C22.9453 36.4282 27.2188 32.1543 27.2188 26.8818C27.2188 24.7568 25.4961 23.0347 23.3711 23.0347L3.84766 23.0347ZM3.84766 25.0347L23.3711 25.0347Q23.6035 25.0347 23.8203 25.0889Q23.957 25.123 24.0898 25.1792Q24.2344 25.2402 24.3652 25.3232Q24.5332 25.4307 24.6777 25.5757Q24.8223 25.7202 24.9297 25.8892Q25.0137 26.019 25.0742 26.1636Q25.1309 26.2959 25.1641 26.4336Q25.2188 26.6509 25.2188 26.8818Q25.2188 27.7544 25.0273 28.583Q24.8828 29.2134 24.627 29.8184Q24.3633 30.4424 23.998 31.001Q23.5723 31.6543 23.0078 32.2178Q22.4453 32.7812 21.793 33.2075Q21.2344 33.5718 20.6094 33.8359Q20.0039 34.0918 19.373 34.2373Q18.5449 34.4282 17.6719 34.4282L9.54688 34.4282Q8.67383 34.4282 7.8457 34.2373Q7.21484 34.0918 6.60938 33.8359Q5.98633 33.5718 5.42773 33.2075Q4.77344 32.7812 4.21094 32.2178Q3.64648 31.6543 3.2207 31.0015Q2.85547 30.4429 2.5918 29.8184Q2.33594 29.2134 2.19141 28.583Q2 27.7544 2 26.8818Q2 26.6509 2.05469 26.4336Q2.08789 26.2959 2.14453 26.1636Q2.20508 26.019 2.28906 25.8887Q2.39648 25.7202 2.54102 25.5757Q2.68555 25.4307 2.85352 25.3232Q2.98438 25.2402 3.12891 25.1792Q3.26172 25.123 3.39844 25.0889Q3.61719 25.0347 3.84766 25.0347Z" fill="#202020" fill-opacity="1.000000" fill-rule="evenodd"/>
</svg>
