<svg width="39.328125" height="41.543457" viewBox="0 0 39.3281 41.5435" fill="none" xmlns="http://www.w3.org/2000/svg" xmlns:xlink="http://www.w3.org/1999/xlink">
	<desc>
			Created with Pixso.
	</desc>
	<defs/>
	<path id="Vector 26" d="M16.291 27.4946L16.291 27.5229C15.8965 27.9189 15.2734 27.9189 14.877 27.5229C14.4824 27.127 14.4824 26.5044 14.877 26.1084L14.9062 26.1084L16.291 27.4946ZM2.35938 35.6899L2.35938 35.7183C1.96289 36.1143 1.3418 36.1143 0.945312 35.7183C0.548828 35.3223 0.548828 34.7002 0.945312 34.3042L0.972656 34.3042L2.35938 35.6899ZM0.972656 19.3271L0.945312 19.3271C0.548828 18.9312 0.548828 18.3091 0.945312 17.9131C1.3418 17.5171 1.96289 17.5171 2.35938 17.9131L2.35938 17.9414L0.972656 19.3271Z" fill="#202020" fill-opacity="1.000000" fill-rule="nonzero"/>
	<path id="Vector 26" d="M15.584 26.8159L23.5762 18.8252C24.3672 18.0332 24.3672 16.7485 23.5762 15.9565C22.7832 15.1646 21.498 15.1646 20.707 15.9565L9.84766 26.8159L1.65234 35.0112M9.84766 26.8159L1.65234 18.6201" stroke="#202020" stroke-opacity="1.000000" stroke-width="2.000000" stroke-linejoin="round"/>
	<circle id="Ellipse 32" cx="3.687500" cy="16.416992" r="2.687984" stroke="#202020" stroke-opacity="1.000000" stroke-width="2.000000" stroke-linejoin="round"/>
	<circle id="Ellipse 33" cx="3.687500" cy="37.151367" r="2.687984" stroke="#202020" stroke-opacity="1.000000" stroke-width="2.000000" stroke-linejoin="round"/>
	<path id="Vector 27" d="M9.84961 40.5435L9.84961 26.8159M9.84961 20.6694L9.84961 11.2446L9.84961 4.27832L9.84961 1M4.93164 1L4.93164 4.27832L4.93164 9.24463C4.93164 10.3491 5.82617 11.2446 6.93164 11.2446L9.84961 11.2446M4.93164 4.27832L9.84961 4.27832M33.4102 1L33.4102 4.27832L33.4102 11.2446L33.4102 17.5957L33.4102 23.9473L33.4102 30.5039L33.4102 36.8555L33.4102 40.5435M38.3281 1L38.3281 4.27832L38.3281 11.2446L38.3281 17.5957L38.3281 23.9473L38.3281 30.5039L38.3281 36.8555L38.3281 40.5435M33.4102 36.8555L38.3281 36.8555M33.4102 30.5039L38.3281 30.5039M33.4102 23.9473L38.3281 23.9473M33.4102 17.5957L38.3281 17.5957M33.4102 11.2446L38.3281 11.2446M33.4102 4.27832L38.3281 4.27832" stroke="#202020" stroke-opacity="1.000000" stroke-width="2.000000" stroke-linejoin="round"/>
	<circle id="Ellipse 34" cx="19.478516" cy="26.815430" r="0.819552" fill="#202020" fill-opacity="1.000000"/>
	<circle id="Ellipse 35" cx="23.166016" cy="26.815918" r="0.819552" fill="#202020" fill-opacity="1.000000"/>
	<circle id="Ellipse 36" cx="26.855469" cy="26.815430" r="0.819552" fill="#202020" fill-opacity="1.000000"/>
	<circle id="Ellipse 37" cx="30.542969" cy="26.815430" r="0.819552" fill="#202020" fill-opacity="1.000000"/>
</svg>
