<svg width="39.908203" height="32.272461" viewBox="0 0 39.9082 32.2725" fill="none" xmlns="http://www.w3.org/2000/svg" xmlns:xlink="http://www.w3.org/1999/xlink">
	<desc>
			Created with Pixso.
	</desc>
	<defs/>
	<path id="Vector 28" d="" fill="#E7E3D8" fill-opacity="0" fill-rule="nonzero"/>
	<path id="Vector 28" d="M1 3C1 1.89551 1.89453 1 3 1L20.5684 1C21.1328 1 21.5898 1.45801 21.5898 2.02295C21.5898 4.16895 23.3301 5.90918 25.4766 5.90918C27.623 5.90918 29.3633 4.16895 29.3633 2.02295L29.3633 1.12207C29.3633 1.05469 29.418 1 29.4863 1L36.9082 1C38.0137 1 38.9082 1.89551 38.9082 3L38.9082 29.2725C38.9082 30.377 38.0137 31.2725 36.9082 31.2725L29.8398 31.2725C29.5762 31.2725 29.3633 31.0591 29.3633 30.7954C29.3633 28.6489 27.623 26.9087 25.4766 26.9087C23.3301 26.9087 21.5898 28.6489 21.5898 30.7954L21.5898 31.1201C21.5898 31.2041 21.5215 31.2725 21.4375 31.2725L3 31.2725C1.89453 31.2725 1 30.377 1 29.2725L1 3Z" stroke="#202020" stroke-opacity="1.000000" stroke-width="2.000000"/>
	<path id="Vector 29" d="M24.293 11.6562L24.2734 11.6362C24.2734 11.0762 24.7129 10.6362 25.2734 10.6362C25.834 10.6362 26.2734 11.0762 26.2734 11.6362L26.2539 11.6562L24.293 11.6562ZM26.2539 13.5254L26.2734 13.5454C26.2734 14.1055 25.834 14.5454 25.2734 14.5454C24.7129 14.5454 24.2734 14.1055 24.2734 13.5454L24.293 13.5254L26.2539 13.5254Z" fill="#202020" fill-opacity="1.000000" fill-rule="nonzero"/>
	<path id="Vector 29" d="M25.2734 11.6362L25.2734 13.5454" stroke="#202020" stroke-opacity="1.000000" stroke-width="2.000000" stroke-linecap="round"/>
	<path id="Vector 29" d="M24.293 19.8379L24.2734 19.8179C24.2734 19.2578 24.7129 18.8179 25.2734 18.8179C25.834 18.8179 26.2734 19.2578 26.2734 19.8179L26.2539 19.8379L24.293 19.8379ZM26.2539 21.707L26.2734 21.7271C26.2734 22.2871 25.834 22.7271 25.2734 22.7271C24.7129 22.7271 24.2734 22.2871 24.2734 21.7271L24.293 21.707L26.2539 21.707Z" fill="#202020" fill-opacity="1.000000" fill-rule="nonzero"/>
	<path id="Vector 29" d="M25.2734 19.8179L25.2734 21.7271" stroke="#202020" stroke-opacity="1.000000" stroke-width="2.000000" stroke-linecap="round"/>
</svg>
