<svg width="24.000000" height="24.000000" viewBox="0 0 24 24" fill="none" xmlns="http://www.w3.org/2000/svg" xmlns:xlink="http://www.w3.org/1999/xlink">
	<desc>
			Created with Pixso.
	</desc>
	<defs/>
	<path id="Vector" d="M5 19C4.73 19 4.48 19.1 4.29 19.29C4.1 19.48 4 19.73 4 20C4 20.26 4.1 20.51 4.29 20.7C4.48 20.89 4.73 21 5 21L19 21C19.26 21 19.51 20.89 19.7 20.7C19.89 20.51 20 20.26 20 20C20 19.73 19.89 19.48 19.7 19.29C19.51 19.1 19.26 19 19 19L5 19ZM16.94 11.29C16.85 11.2 16.74 11.13 16.62 11.07C16.5 11.02 16.37 11 16.24 11C16.11 11 15.98 11.02 15.85 11.07C15.73 11.13 15.62 11.2 15.53 11.29L13 13.83L13 4C13 3.73 12.89 3.48 12.7 3.29C12.51 3.1 12.26 3 12 3C11.73 3 11.48 3.1 11.29 3.29C11.1 3.48 11 3.73 11 4L11 13.83L8.46 11.29C8.27 11.1 8.02 11 7.75 11C7.49 11 7.23 11.1 7.04 11.29C6.86 11.48 6.75 11.73 6.75 12C6.75 12.27 6.86 12.52 7.05 12.71L11.29 16.95C11.48 17.14 11.73 17.24 12 17.24C12.26 17.24 12.51 17.14 12.7 16.95L16.94 12.71C17.04 12.61 17.11 12.5 17.16 12.38C17.21 12.26 17.24 12.13 17.24 12C17.24 11.87 17.21 11.74 17.16 11.62C17.11 11.5 17.04 11.38 16.94 11.29Z" fill="#FFFFFF" fill-opacity="1.000000" fill-rule="nonzero"/>
</svg>
