<svg width="20.000000" height="16.000000" viewBox="0 0 20 16" fill="none" xmlns="http://www.w3.org/2000/svg" xmlns:xlink="http://www.w3.org/1999/xlink">
	<desc>
			Created with Pixso.
	</desc>
	<defs/>
	<path id="Vector" d="M17.02 0C17.79 0 18.51 0.3 19.07 0.82C19.61 1.35 19.95 2.06 19.99 2.82L20 3L20 13C20 13.76 19.7 14.5 19.18 15.05C18.65 15.61 17.93 15.95 17.17 15.99L17 16L3 16C2.23 16 1.49 15.7 0.94 15.18C0.38 14.65 0.05 13.93 0 13.17L0 13L0 3C0 2.23 0.28 1.5 0.8 0.95C1.32 0.39 2.03 0.05 2.79 0L2.96 0L4.02 4.24C4.07 4.44 4.18 4.61 4.33 4.75C4.49 4.88 4.68 4.97 4.88 4.99L5 5L15 5C15.2 4.99 15.4 4.93 15.57 4.82C15.73 4.7 15.86 4.54 15.93 4.35L15.97 4.24L17.02 0ZM6.5 8C6.1 8 5.72 8.15 5.43 8.43C5.15 8.72 5 9.1 5 9.5C5 9.89 5.15 10.27 5.43 10.56C5.72 10.84 6.1 11 6.5 11C6.89 11 7.27 10.84 7.56 10.56C7.84 10.27 8 9.89 8 9.5C8 9.1 7.84 8.72 7.56 8.43C7.27 8.15 6.89 8 6.5 8ZM13.5 8C13.1 8 12.72 8.15 12.43 8.43C12.15 8.72 12 9.1 12 9.5C12 9.89 12.15 10.27 12.43 10.56C12.72 10.84 13.1 11 13.5 11C13.89 11 14.27 10.84 14.56 10.56C14.84 10.27 15 9.89 15 9.5C15 9.1 14.84 8.72 14.56 8.43C14.27 8.15 13.89 8 13.5 8ZM14.97 0L14.22 3L5.77 3L5.02 0L14.97 0Z" fill="#E7E3D8" fill-opacity="1.000000" fill-rule="evenodd"/>
</svg>
