<svg width="1515.000000" height="14.000000" viewBox="0 0 1515 14" fill="none" xmlns="http://www.w3.org/2000/svg" xmlns:xlink="http://www.w3.org/1999/xlink">
	<desc>
			Created with Pixso.
	</desc>
	<defs/>
	<rect id="Rectangle 24" y="-0.016846" rx="2.000000" width="23.410168" height="13.904272" fill="#FFFFFF" fill-opacity="1.000000"/>
	<rect id="Rectangle 28" x="64.828125" y="-0.016846" rx="2.000000" width="23.410168" height="13.904272" fill="#FFFFFF" fill-opacity="1.000000"/>
	<rect id="Rectangle 32" x="129.656250" y="-0.016846" rx="2.000000" width="23.410168" height="13.904272" fill="#FFFFFF" fill-opacity="1.000000"/>
	<rect id="Rectangle 36" x="194.484375" y="-0.016846" rx="2.000000" width="23.410168" height="13.904272" fill="#FFFFFF" fill-opacity="1.000000"/>
	<rect id="Rectangle 40" x="259.312500" y="-0.016846" rx="2.000000" width="23.410168" height="13.904272" fill="#FFFFFF" fill-opacity="1.000000"/>
	<rect id="Rectangle 44" x="324.140625" y="-0.016846" rx="2.000000" width="23.410168" height="13.904272" fill="#FFFFFF" fill-opacity="1.000000"/>
	<rect id="Rectangle 48" x="388.970703" y="-0.016846" rx="2.000000" width="23.410168" height="13.904272" fill="#FFFFFF" fill-opacity="1.000000"/>
	<rect id="Rectangle 52" x="453.798828" y="-0.016846" rx="2.000000" width="23.410168" height="13.904272" fill="#FFFFFF" fill-opacity="1.000000"/>
	<rect id="Rectangle 56" x="518.623047" y="-0.016846" rx="2.000000" width="23.410168" height="13.904272" fill="#FFFFFF" fill-opacity="1.000000"/>
	<rect id="Rectangle 60" x="583.455078" y="-0.016846" rx="2.000000" width="23.410168" height="13.904272" fill="#FFFFFF" fill-opacity="1.000000"/>
	<rect id="Rectangle 64" x="648.281250" y="-0.016846" rx="2.000000" width="23.410168" height="13.904272" fill="#FFFFFF" fill-opacity="1.000000"/>
	<rect id="Rectangle 68" x="713.111328" y="-0.016846" rx="2.000000" width="23.410168" height="13.904272" fill="#FFFFFF" fill-opacity="1.000000"/>
	<rect id="Rectangle 72" x="777.937500" y="-0.016846" rx="2.000000" width="23.410168" height="13.904272" fill="#FFFFFF" fill-opacity="1.000000"/>
	<rect id="Rectangle 76" x="842.767578" y="-0.016846" rx="2.000000" width="23.410168" height="13.904272" fill="#FFFFFF" fill-opacity="1.000000"/>
	<rect id="Rectangle 80" x="907.593750" y="-0.016846" rx="2.000000" width="23.410168" height="13.904272" fill="#FFFFFF" fill-opacity="1.000000"/>
	<rect id="Rectangle 84" x="972.421875" y="-0.016846" rx="2.000000" width="23.410168" height="13.904272" fill="#FFFFFF" fill-opacity="1.000000"/>
	<rect id="Rectangle 88" x="1037.250000" y="-0.016846" rx="2.000000" width="23.410168" height="13.904272" fill="#FFFFFF" fill-opacity="1.000000"/>
	<rect id="Rectangle 92" x="1102.078125" y="-0.016846" rx="2.000000" width="23.410168" height="13.904272" fill="#FFFFFF" fill-opacity="1.000000"/>
	<rect id="Rectangle 93" x="1166.865234" y="-0.016846" rx="2.000000" width="23.410168" height="13.904272" fill="#FFFFFF" fill-opacity="1.000000"/>
	<rect id="Rectangle 94" x="1231.656250" y="-0.016846" rx="2.000000" width="23.410168" height="13.904272" fill="#FFFFFF" fill-opacity="1.000000"/>
	<rect id="Rectangle 95" x="1296.445312" y="-0.016846" rx="2.000000" width="23.410168" height="13.904272" fill="#FFFFFF" fill-opacity="1.000000"/>
	<rect id="Rectangle 96" x="1361.232422" y="-0.016846" rx="2.000000" width="23.410168" height="13.904272" fill="#FFFFFF" fill-opacity="1.000000"/>
	<rect id="Rectangle 97" x="1426.019531" y="-0.016846" rx="2.000000" width="23.410168" height="13.904272" fill="#FFFFFF" fill-opacity="1.000000"/>
	<rect id="Rectangle 98" x="1490.810547" y="-0.016846" rx="2.000000" width="23.410168" height="13.904272" fill="#FFFFFF" fill-opacity="1.000000"/>
</svg>
