<svg width="39.998047" height="20.179688" viewBox="0 0 39.998 20.1797" fill="none" xmlns="http://www.w3.org/2000/svg" xmlns:xlink="http://www.w3.org/1999/xlink">
	<desc>
			Created with Pixso.
	</desc>
	<defs/>
	<path id="Vector" d="M8.67383 15.468C8.11914 15.0261 6.22461 13.4963 5.6543 12.7952C5.57227 12.6936 5.55273 12.554 5.60547 12.4343C5.70312 12.2104 5.8418 11.7812 5.76953 11.2563C5.66016 10.4783 5.47852 8.18701 6.31641 6.28467C6.69141 5.26538 6.96484 5.44434 7.39062 4.54199C7.81836 3.6394 7.99609 3.55371 8.1582 3.65503C8.32227 3.7561 8.57812 4.3396 8.47656 4.91553C8.37695 5.49146 7.91016 6.19922 8.11328 7.02393C8.11328 7.02393 9.71289 5.31909 10.3555 4.17261C11.0781 2.88501 13.0859 -0.212891 13.6699 0.286377C13.9883 0.558838 13.957 0.737793 13.957 0.737793C13.957 0.737793 14.7246 -0.296875 15.2383 0.0844727C15.75 0.46582 15.043 1.49243 15.043 1.49243C15.043 1.49243 15.6504 1.41455 15.6719 1.80371C15.7109 2.48047 15.1914 3.67114 15.1914 3.67114C15.1914 3.67114 15.7324 3.50049 15.8125 3.81104C15.8887 4.1145 15.8887 4.93921 15.416 6.02075C14.9414 7.10229 14.3281 9.48242 14.0566 9.97314C13.6953 10.6294 11.1719 14.6611 9.02734 15.5193C8.9082 15.5669 8.77344 15.5488 8.67383 15.4688L8.67383 15.468Z" fill="#FFFFFF" fill-opacity="1.000000" fill-rule="nonzero"/>
	<path id="Vector" d="M14.1777 10.4783C14.1777 10.4783 15.8809 5.99292 16.0684 4.81421C16.0684 4.81421 19.4707 3.55957 19.7578 4.70923C19.8398 5.03613 19.6758 5.09424 19.6758 5.09424C19.6758 5.09424 21.0859 5.10596 20.9922 5.77124C20.8984 6.43628 19.9102 6.38965 19.9102 6.38965C19.9102 6.38965 20.6309 7.18335 18.1738 7.86011C18.1738 7.86011 18.7324 8.25684 17.8828 8.84033C17.0332 9.42383 14.1777 10.4783 14.1777 10.4783Z" fill="#FFFFFF" fill-opacity="1.000000" fill-rule="nonzero"/>
	<path id="Vector" d="M5.25195 9.50684C5.28906 9.45435 5.37305 9.48022 5.37305 9.54492C5.375 9.86084 5.38672 10.4639 5.44141 10.8672C5.49805 11.2676 5.41602 11.8464 5.36523 12.1523C5.34961 12.238 5.25781 12.2847 5.17969 12.2461C5.10156 12.2073 4.99805 12.1902 4.89062 12.2676C4.70117 12.4053 2.87109 14.4363 2.30273 15.0686C2.21094 15.1721 2.05078 15.1814 1.94727 15.0898L0.0878906 13.4624C-0.0253906 13.3638 -0.0292969 13.1895 0.078125 13.0859L3.23438 10.0654C3.2793 10.0232 3.34766 10.0237 3.39062 10.0669C3.55078 10.2263 3.93164 10.5681 4.22266 10.5322C4.51172 10.4971 5.02148 9.82959 5.25195 9.50659L5.25195 9.50684Z" fill="#FFFFFF" fill-opacity="1.000000" fill-rule="nonzero"/>
	<path id="Vector" d="M3.66406 13.9575L2.00977 15.6404C1.89648 15.7568 1.90039 15.9458 2.02148 16.0557L6.33594 19.9893C6.44336 20.0884 6.61133 20.0891 6.7207 19.9907L7.84961 18.979C7.96484 18.876 7.97852 18.7002 7.88086 18.5808L4.0918 13.9761C3.98242 13.8442 3.7832 13.8354 3.66406 13.9573L3.66406 13.9575Z" fill="#FFFFFF" fill-opacity="1.000000" fill-rule="nonzero"/>
	<path id="Vector" d="M8.60156 16.6248C8.60156 16.9512 8.33789 17.2158 8.01172 17.2158C7.68555 17.2158 7.42188 16.9512 7.42188 16.6248C7.42188 16.2981 7.68555 16.0334 8.01172 16.0334C8.33789 16.0334 8.60156 16.2981 8.60156 16.6248Z" fill="#DD0F0F" fill-opacity="1.000000" fill-rule="evenodd"/>
	<path id="Vector" d="M37.2305 14.6392C37.6113 14.6392 37.9688 14.7109 38.3027 14.8545C38.6367 14.9978 38.9297 15.1946 39.1777 15.4443C39.4336 15.6887 39.6309 15.9785 39.7754 16.3132C39.9238 16.6482 39.998 17.0068 39.998 17.3894C39.998 17.7776 39.9258 18.1389 39.7832 18.4736C39.6445 18.8086 39.4512 19.1035 39.2031 19.3586C38.9531 19.6084 38.6621 19.8076 38.3281 19.9565C37.998 20.1001 37.6445 20.1743 37.2617 20.1797C36.875 20.1797 36.5117 20.1079 36.1719 19.9644C35.8379 19.821 35.5449 19.6243 35.2891 19.3745C35.041 19.1248 34.8418 18.8325 34.6934 18.4976C34.5508 18.1628 34.4785 17.804 34.4785 17.4214C34.4785 17.0388 34.5469 16.6799 34.6855 16.3452C34.8281 16.0051 35.0254 15.71 35.2734 15.4602C35.5234 15.2104 35.8145 15.0112 36.1484 14.8623C36.4883 14.7136 36.8477 14.6392 37.2305 14.6392ZM38.3906 18.5693C38.5449 18.4153 38.6621 18.2397 38.7402 18.0432C38.8203 17.8467 38.8594 17.6367 38.8594 17.4133C38.8594 17.1902 38.8184 16.9802 38.7324 16.7837C38.6543 16.5818 38.5352 16.4036 38.375 16.2495C38.2207 16.1006 38.0469 15.989 37.8496 15.9148C37.6602 15.835 37.4531 15.7952 37.2305 15.7952C36.7734 15.7952 36.3926 15.9546 36.084 16.2734C35.9316 16.4275 35.8145 16.603 35.7344 16.7996C35.6562 16.991 35.6152 17.1982 35.6152 17.4214C35.6152 17.6445 35.6562 17.8545 35.7344 18.0513C35.8203 18.2478 35.9414 18.4231 36.1016 18.5774C36.2539 18.7314 36.4277 18.8484 36.6172 18.9282C36.8145 19.0078 37.0234 19.0476 37.2461 19.0476C37.4746 19.0425 37.6855 18.9998 37.8828 18.9202C38.0781 18.8403 38.248 18.7234 38.3906 18.5693Z" fill="#FFFFFF" fill-opacity="1.000000" fill-rule="nonzero"/>
	<path id="Vector" d="M33.7188 16.6721C33.8828 16.8582 34.002 17.0786 34.0762 17.3337C34.1543 17.5889 34.1953 17.8625 34.1953 18.1548C34.1953 18.4524 34.1523 18.7261 34.0684 18.9758C33.9883 19.2205 33.8633 19.4331 33.6934 19.6138C33.5293 19.7944 33.3223 19.9353 33.0742 20.0361C32.8242 20.1318 32.5352 20.1797 32.207 20.1797L30.1074 20.1797L30.1074 14.6392L31.9922 14.6392C32.2051 14.6392 32.4023 14.6763 32.5879 14.7507C32.7734 14.8198 32.9355 14.9209 33.0742 15.0537C33.2168 15.1812 33.3262 15.3354 33.4004 15.5161C33.4785 15.6914 33.5195 15.8855 33.5195 16.0981C33.5195 16.2256 33.498 16.3372 33.4551 16.4329C33.5566 16.502 33.6445 16.5818 33.7188 16.6721ZM31.2441 19.0398L32.2383 19.0398C32.291 19.0398 32.3633 19.0237 32.4531 18.9919C32.5488 18.9546 32.6387 18.9016 32.7246 18.8325C32.8145 18.7581 32.8906 18.665 32.9551 18.5535C33.0176 18.4365 33.0508 18.301 33.0508 18.1467C33.0508 18.0085 33.0234 17.8838 32.9707 17.7722C32.9219 17.6553 32.8594 17.5542 32.7793 17.4692C32.7051 17.3843 32.6172 17.3203 32.5176 17.2778C32.4219 17.23 32.3242 17.2061 32.2227 17.2061L31.2441 17.2061L31.2441 19.0398ZM32.1914 16.0742C32.2539 16.0742 32.3164 16.0742 32.373 16.0742C32.3691 16.0369 32.3555 16.0024 32.334 15.9705C32.3027 15.928 32.2617 15.8933 32.2148 15.8669C32.1719 15.8403 32.127 15.8218 32.0801 15.811C32.0312 15.7952 31.9941 15.7871 31.9688 15.7871L31.2441 15.7871L31.2441 16.0742L32.1914 16.0742Z" fill="#FFFFFF" fill-opacity="1.000000" fill-rule="nonzero"/>
	<path id="Vector" d="M26.2734 14.6392L27.459 14.6392L29.6152 19.3745L29.6152 20.1797L28.707 20.1797L28.0723 18.7527L25.6543 18.7527L25.0254 20.1797L24.1191 20.1797L24.1191 19.3745L26.2734 14.6392ZM26.8633 16.0342L26.1621 17.6128L27.5625 17.6128L26.8633 16.0342Z" fill="#FFFFFF" fill-opacity="1.000000" fill-rule="nonzero"/>
	<path id="Vector" d="M20.8164 17.6128L21.7871 17.6128C21.8887 17.6128 21.9863 17.5916 22.082 17.5488C22.1816 17.5012 22.2695 17.4346 22.3438 17.3496C22.4238 17.2646 22.4863 17.1663 22.5352 17.0547C22.5879 16.9377 22.6133 16.8103 22.6133 16.6721C22.6133 16.5178 22.582 16.385 22.5195 16.2734C22.4551 16.1565 22.3789 16.0635 22.2891 15.9944C22.2031 15.9199 22.1133 15.8669 22.0176 15.835C21.9277 15.7979 21.8555 15.7791 21.8027 15.7791L20.8164 15.7791L20.8164 17.6128ZM20.8164 18.7527L20.8164 20.1797L19.6797 20.1797L19.6797 14.6392L21.7715 14.6392C22.0996 14.6392 22.3887 14.6897 22.6387 14.7905C22.8867 14.8862 23.0938 15.0244 23.2578 15.2051C23.4277 15.386 23.5527 15.6011 23.6328 15.8508C23.7168 16.0955 23.7598 16.3665 23.7598 16.6641C23.7598 16.9617 23.7188 17.238 23.6406 17.4932C23.5664 17.7429 23.4473 17.9634 23.2812 18.1548C23.123 18.3408 22.916 18.4871 22.6621 18.5933C22.4121 18.6995 22.1152 18.7527 21.7715 18.7527L20.8164 18.7527Z" fill="#FFFFFF" fill-opacity="1.000000" fill-rule="nonzero"/>
	<path id="Vector" d="M17.834 14.6392L17.834 15.7791L16.3711 15.7791L16.3711 16.0662L17.334 16.0662C17.6777 16.0662 17.9746 16.1194 18.2246 16.2256C18.4785 16.3318 18.6855 16.4807 18.8457 16.6721C19.0098 16.8582 19.1289 17.0786 19.2031 17.3337C19.2812 17.5889 19.3223 17.8625 19.3223 18.1548C19.3223 18.4524 19.2793 18.7261 19.1953 18.9758C19.1152 19.2205 18.9902 19.4331 18.8203 19.6138C18.6562 19.7944 18.4492 19.9353 18.2012 20.0361C17.9512 20.1318 17.6621 20.1797 17.334 20.1797L15.2344 20.1797L15.2344 14.6392L17.834 14.6392ZM16.3711 19.0398L17.3652 19.0398C17.418 19.0398 17.4902 19.0237 17.5801 18.9919C17.6758 18.9546 17.7656 18.9016 17.8516 18.8325C17.9414 18.7581 18.0176 18.665 18.082 18.5535C18.1445 18.4365 18.1777 18.301 18.1777 18.1467C18.1777 18.0085 18.1504 17.8838 18.0977 17.7722C18.0488 17.6553 17.9863 17.5542 17.9062 17.4692C17.832 17.3843 17.7441 17.3203 17.6445 17.2778C17.5488 17.23 17.4512 17.2061 17.3496 17.2061L16.3711 17.2061L16.3711 19.0398Z" fill="#FFFFFF" fill-opacity="1.000000" fill-rule="nonzero"/>
</svg>
