<svg width="49.167969" height="24.747070" viewBox="0 0 49.168 24.7471" fill="none" xmlns="http://www.w3.org/2000/svg" xmlns:xlink="http://www.w3.org/1999/xlink">
	<desc>
			Created with Pixso.
	</desc>
	<defs/>
	<path id="Vector" d="M10.6621 18.9688C9.98047 18.4268 7.65234 16.5508 6.94922 15.6909C6.84766 15.5664 6.82617 15.395 6.88867 15.2485C7.00977 14.9741 7.17969 14.4478 7.08984 13.8037C6.95703 12.8496 6.73242 10.04 7.76367 7.70703C8.22461 6.45703 8.55859 6.67676 9.08398 5.56982C9.60938 4.46289 9.82812 4.35791 10.0293 4.48193C10.2285 4.60645 10.5449 5.32178 10.4199 6.02783C10.2949 6.73438 9.72266 7.60254 9.9707 8.61377C9.9707 8.61377 11.9395 6.52295 12.7285 5.11719C13.6152 3.53809 16.0859 -0.26123 16.8027 0.351074C17.1934 0.685547 17.1562 0.904785 17.1562 0.904785C17.1562 0.904785 18.0996 -0.364258 18.7305 0.103516C19.3594 0.571289 18.4922 1.83008 18.4922 1.83008C18.4922 1.83008 19.2363 1.73486 19.2637 2.21191C19.3125 3.04199 18.6738 4.50195 18.6738 4.50195C18.6738 4.50195 19.3379 4.29297 19.4355 4.67383C19.5312 5.0459 19.5312 6.05713 18.9492 7.3833C18.3672 8.70947 17.6113 11.6284 17.2793 12.2305C16.8359 13.0352 13.7324 17.979 11.0957 19.0317C10.9492 19.0898 10.7832 19.0679 10.6602 18.9697L10.6621 18.9688Z" fill="#202020" fill-opacity="1.000000" fill-rule="nonzero"/>
	<path id="Vector" d="M17.4316 12.8496C17.4316 12.8496 19.5254 7.34912 19.7539 5.90381C19.7539 5.90381 23.9395 4.36523 24.291 5.7749C24.3906 6.17578 24.1914 6.24707 24.1914 6.24707C24.1914 6.24707 25.9238 6.26172 25.8086 7.07715C25.6934 7.89307 24.4785 7.83594 24.4785 7.83594C24.4785 7.83594 25.3652 8.80908 22.3457 9.63916C22.3457 9.63916 23.0312 10.1255 21.9883 10.8413C20.9434 11.5566 17.4316 12.8496 17.4316 12.8496Z" fill="#202020" fill-opacity="1.000000" fill-rule="nonzero"/>
	<path id="Vector" d="M6.45703 11.6587C6.50391 11.5947 6.60352 11.6265 6.60547 11.7056C6.60742 12.0933 6.62305 12.8325 6.68945 13.3271C6.75781 13.8184 6.6582 14.5278 6.59375 14.9033C6.57617 15.0083 6.46289 15.0654 6.36719 15.0181C6.27148 14.9707 6.14453 14.9497 6.01367 15.0444C5.7793 15.2134 3.5293 17.7041 2.83203 18.4795C2.7168 18.6064 2.52148 18.6177 2.39258 18.5054L0.107422 16.5098C-0.03125 16.3887 -0.0371094 16.1748 0.0976562 16.0479L3.97656 12.3438C4.03125 12.292 4.11523 12.2925 4.16797 12.3457C4.36523 12.541 4.83203 12.9604 5.19141 12.9165C5.54492 12.873 6.17188 12.0547 6.45703 11.6587L6.45703 11.6587Z" fill="#202020" fill-opacity="1.000000" fill-rule="nonzero"/>
	<path id="Vector" d="M4.50586 17.1162L2.47266 19.1802C2.33203 19.3228 2.33789 19.5547 2.48633 19.6895L7.78906 24.5132C7.92383 24.6348 8.12695 24.6357 8.26172 24.5151L9.65039 23.2744C9.79297 23.1479 9.80859 22.9326 9.6875 22.7861L5.03125 17.1392C4.89648 16.9775 4.65234 16.9668 4.50586 17.1162L4.50586 17.1162Z" fill="#202020" fill-opacity="1.000000" fill-rule="nonzero"/>
	<path id="Vector" d="M10.5723 20.3872C10.5723 20.7876 10.248 21.1123 9.84766 21.1123C9.44727 21.1123 9.12305 20.7876 9.12305 20.3872C9.12305 19.9868 9.44727 19.6621 9.84766 19.6621C10.248 19.6621 10.5723 19.9868 10.5723 20.3872Z" fill="#DD0F0F" fill-opacity="1.000000" fill-rule="evenodd"/>
	<path id="Vector" d="M47.7129 16.3296L47.459 16.3296L47.8398 15.7695C47.7383 15.7437 47.6602 15.6978 47.6074 15.6318C47.5547 15.5664 47.5273 15.4854 47.5273 15.3887C47.5273 15.2656 47.5703 15.1694 47.6543 15.0996C47.7363 15.0298 47.8535 14.9951 48.002 14.9951L48.5996 14.9951L48.5996 16.3296L48.3809 16.3296L48.3809 15.7998L48.0566 15.7998L47.7129 16.3296ZM47.7402 15.3911C47.7402 15.542 47.8477 15.6172 48.0664 15.6172L48.3809 15.6172L48.3809 15.1772L48.0234 15.1772C47.9316 15.1772 47.8594 15.1958 47.8105 15.2319C47.7637 15.2686 47.7402 15.3218 47.7402 15.3911Z" fill="#202020" fill-opacity="1.000000" fill-rule="nonzero"/>
	<path id="Vector" d="M46.2363 14.9951L46.2363 15.8096L46.2266 16.0454L46.2207 16.1133L46.9355 14.9951L47.2051 14.9951L47.2051 16.3296L47 16.3296L47 15.5435L47.0039 15.3745L47.0098 15.2139L46.3008 16.3296L46.0293 16.3296L46.0293 14.9951L46.2363 14.9951Z" fill="#202020" fill-opacity="1.000000" fill-rule="nonzero"/>
	<path id="Vector" d="M44.6602 14.9951L44.6602 15.5508L45.3848 15.5508L45.3848 14.9951L45.6035 14.9951L45.6035 16.3296L45.3848 16.3296L45.3848 15.7354L44.6602 15.7354L44.6602 16.3296L44.4414 16.3296L44.4414 14.9951L44.6602 14.9951Z" fill="#202020" fill-opacity="1.000000" fill-rule="nonzero"/>
	<path id="Vector" d="M43.8691 16.3291L43.8262 16.1396L43.8164 16.1396C43.75 16.2231 43.6836 16.2798 43.6172 16.3096C43.5508 16.3389 43.4688 16.3535 43.3672 16.3535C43.2363 16.3535 43.1328 16.3188 43.0586 16.25C42.9844 16.1812 42.9473 16.084 42.9473 15.9585C42.9473 15.6875 43.1602 15.5459 43.5879 15.5332L43.8145 15.5244L43.8145 15.4453C43.8145 15.3442 43.791 15.2695 43.748 15.2217C43.7051 15.1733 43.6348 15.1489 43.5371 15.1489C43.4668 15.1489 43.4004 15.1597 43.3379 15.1807C43.2754 15.2017 43.2168 15.2251 43.1621 15.251L43.0938 15.0869C43.1621 15.0513 43.2344 15.0234 43.3145 15.0029C43.3945 14.9829 43.4727 14.9727 43.5508 14.9727C43.7109 14.9727 43.832 15.0083 43.9102 15.0796C43.9883 15.1509 44.0273 15.2642 44.0273 15.4199L44.0273 16.3291L43.8691 16.3291ZM43.418 16.1772C43.5391 16.1772 43.6367 16.1445 43.7051 16.0786C43.7754 16.0122 43.8105 15.9185 43.8105 15.7969L43.8105 15.6763L43.6152 15.6851C43.4609 15.6904 43.3496 15.7148 43.2793 15.7578C43.209 15.8008 43.1738 15.8687 43.1738 15.9609C43.1738 16.0303 43.1953 16.084 43.2383 16.1211C43.2812 16.1587 43.3398 16.1772 43.418 16.1772Z" fill="#202020" fill-opacity="1.000000" fill-rule="nonzero"/>
	<path id="Vector" d="M41.7109 16.3296L41.4922 16.3296L41.4922 14.9951L42.6191 14.9951L42.6191 16.3296L42.4004 16.3296L42.4004 15.1821L41.7109 15.1821L41.7109 16.3296Z" fill="#202020" fill-opacity="1.000000" fill-rule="nonzero"/>
	<path id="Vector" d="M40.3438 16.1206C40.3691 16.0322 40.4004 15.9409 40.4375 15.8472L40.7852 14.9951L41.0664 14.9951L41.0664 16.3296L40.8691 16.3296L40.8691 15.2295C40.8418 15.3179 40.8086 15.4106 40.7695 15.5078L40.4375 16.3296L40.2598 16.3296L39.9258 15.5029C39.9102 15.4644 39.8945 15.4219 39.877 15.3755C39.8633 15.3296 39.8477 15.2808 39.832 15.2295L39.832 16.3296L39.6348 16.3296L39.6348 14.9951L39.9082 14.9951L40.2441 15.8145C40.2754 15.8906 40.3086 15.9927 40.3438 16.1206Z" fill="#202020" fill-opacity="1.000000" fill-rule="nonzero"/>
	<path id="Vector" d="M39.2871 15.6597C39.2871 15.8779 39.2305 16.0479 39.1211 16.1704C39.0117 16.2925 38.8594 16.354 38.6641 16.354C38.543 16.354 38.4355 16.3257 38.3438 16.27C38.25 16.2134 38.1777 16.1323 38.1289 16.0269C38.0781 15.9214 38.0527 15.7993 38.0527 15.6597C38.0527 15.4429 38.1074 15.2739 38.2148 15.1528C38.3242 15.0312 38.4766 14.9707 38.6719 14.9707C38.8613 14.9707 39.0098 15.0327 39.1191 15.1567C39.2305 15.2798 39.2871 15.4478 39.2871 15.6597ZM38.2793 15.6597C38.2793 15.8276 38.3125 15.9551 38.377 16.0425C38.4434 16.1294 38.541 16.1729 38.6699 16.1729C38.7969 16.1729 38.8945 16.1294 38.9609 16.0425C39.0273 15.9551 39.0605 15.8276 39.0605 15.6597C39.0605 15.4922 39.0273 15.3662 38.959 15.2817C38.8926 15.1968 38.7949 15.1543 38.666 15.1543C38.4082 15.1543 38.2793 15.3228 38.2793 15.6597Z" fill="#202020" fill-opacity="1.000000" fill-rule="nonzero"/>
	<path id="Vector" d="M37.6211 14.9951L37.8594 14.9951L37.291 15.6382L37.9082 16.3296L37.6543 16.3296L37.0508 15.6528L37.0508 16.3296L36.832 16.3296L36.832 14.9951L37.0508 14.9951L37.0508 15.6431L37.6211 14.9951Z" fill="#202020" fill-opacity="1.000000" fill-rule="nonzero"/>
	<path id="Vector" d="M34.8789 16.3296L34.625 16.3296L35.0059 15.7695C34.9043 15.7437 34.8262 15.6978 34.7734 15.6318C34.7207 15.5664 34.6934 15.4854 34.6934 15.3887C34.6934 15.2656 34.7363 15.1694 34.8203 15.0996C34.9023 15.0298 35.0195 14.9951 35.168 14.9951L35.7656 14.9951L35.7656 16.3296L35.5469 16.3296L35.5469 15.7998L35.2227 15.7998L34.8789 16.3296ZM34.9062 15.3911C34.9062 15.542 35.0137 15.6172 35.2324 15.6172L35.5469 15.6172L35.5469 15.1772L35.1895 15.1772C35.0977 15.1772 35.0254 15.1958 34.9766 15.2319C34.9297 15.2686 34.9062 15.3218 34.9062 15.3911Z" fill="#202020" fill-opacity="1.000000" fill-rule="nonzero"/>
	<path id="Vector" d="M34.2188 16.3291L34.1758 16.1396L34.166 16.1396C34.0996 16.2231 34.0332 16.2798 33.9668 16.3096C33.9004 16.3389 33.8184 16.3535 33.7168 16.3535C33.5859 16.3535 33.4824 16.3188 33.4082 16.25C33.334 16.1812 33.2969 16.084 33.2969 15.9585C33.2969 15.6875 33.5098 15.5459 33.9375 15.5332L34.1641 15.5244L34.1641 15.4453C34.1641 15.3442 34.1406 15.2695 34.0977 15.2217C34.0547 15.1733 33.9844 15.1489 33.8867 15.1489C33.8164 15.1489 33.75 15.1597 33.6875 15.1807C33.625 15.2017 33.5664 15.2251 33.5117 15.251L33.4434 15.0869C33.5117 15.0513 33.584 15.0234 33.6641 15.0029C33.7441 14.9829 33.8223 14.9727 33.9004 14.9727C34.0605 14.9727 34.1816 15.0083 34.2598 15.0796C34.3379 15.1509 34.377 15.2642 34.377 15.4199L34.377 16.3291L34.2188 16.3291ZM33.7676 16.1772C33.8887 16.1772 33.9863 16.1445 34.0547 16.0786C34.125 16.0122 34.1602 15.9185 34.1602 15.7969L34.1602 15.6763L33.9648 15.6851C33.8105 15.6904 33.6992 15.7148 33.6289 15.7578C33.5586 15.8008 33.5234 15.8687 33.5234 15.9609C33.5234 16.0303 33.5449 16.084 33.5879 16.1211C33.6309 16.1587 33.6895 16.1772 33.7676 16.1772Z" fill="#202020" fill-opacity="1.000000" fill-rule="nonzero"/>
	<path id="Vector" d="M32.8691 14.9951L33.1074 14.9951L32.5391 15.6382L33.1562 16.3296L32.9023 16.3296L32.2988 15.6528L32.2988 16.3296L32.0801 16.3296L32.0801 14.9951L32.2988 14.9951L32.2988 15.6431L32.8691 14.9951Z" fill="#202020" fill-opacity="1.000000" fill-rule="nonzero"/>
	<path id="Vector" d="M31.418 16.354C31.2246 16.354 31.0762 16.2949 30.9688 16.1777C30.8613 16.0591 30.8086 15.8901 30.8086 15.6694C30.8086 15.4458 30.8633 15.2739 30.9707 15.1528C31.0781 15.0312 31.2324 14.9707 31.4336 14.9707C31.498 14.9707 31.5625 14.9775 31.625 14.9912C31.6895 15.0044 31.7422 15.0215 31.7832 15.0425L31.7168 15.2246C31.6035 15.1826 31.5078 15.1616 31.4277 15.1616C31.2949 15.1616 31.1953 15.2041 31.1309 15.2891C31.0664 15.3735 31.0352 15.4995 31.0352 15.667C31.0352 15.8286 31.0664 15.9521 31.1309 16.0381C31.1953 16.123 31.2891 16.1655 31.416 16.1655C31.5332 16.1655 31.6484 16.1396 31.7617 16.0879L31.7617 16.2822C31.6699 16.3301 31.5547 16.354 31.418 16.354Z" fill="#202020" fill-opacity="1.000000" fill-rule="nonzero"/>
	<path id="Vector" d="M29.9844 16.354C29.8047 16.354 29.666 16.2896 29.5703 16.1606L29.5566 16.1606L29.5605 16.2104C29.5664 16.2734 29.5703 16.3301 29.5703 16.3794L29.5703 16.9277L29.3516 16.9277L29.3516 14.9951L29.5312 14.9951L29.5605 15.1772L29.5703 15.1772C29.623 15.1045 29.6816 15.0518 29.75 15.0195C29.8184 14.9868 29.8965 14.9707 29.9863 14.9707C30.1602 14.9707 30.293 15.0312 30.3887 15.1519C30.4863 15.2715 30.5332 15.4409 30.5332 15.6597C30.5332 15.8779 30.4863 16.0479 30.3887 16.1704C30.293 16.2925 30.1582 16.354 29.9844 16.354ZM29.9473 15.1543C29.8145 15.1543 29.7188 15.1914 29.6602 15.2661C29.6016 15.3408 29.5723 15.4575 29.5703 15.6172L29.5703 15.6597C29.5703 15.8403 29.5996 15.9712 29.6602 16.0522C29.7207 16.1328 29.8184 16.1729 29.9512 16.1729C30.0645 16.1729 30.1504 16.1274 30.2129 16.0366C30.2773 15.9458 30.3086 15.8193 30.3086 15.6572C30.3086 15.4946 30.2773 15.3701 30.2129 15.2842C30.1504 15.1978 30.0625 15.1543 29.9473 15.1543Z" fill="#202020" fill-opacity="1.000000" fill-rule="nonzero"/>
	<path id="Vector" d="M28.5137 16.354C28.3125 16.354 28.1562 16.2935 28.041 16.1729C27.9277 16.0513 27.8711 15.8843 27.8711 15.6719C27.8711 15.458 27.9238 15.2881 28.0312 15.1616C28.1367 15.0342 28.2793 14.9707 28.4609 14.9707C28.6289 14.9707 28.7617 15.0249 28.8613 15.1338C28.9609 15.2412 29.0117 15.3877 29.0117 15.5723L29.0117 15.7046L28.0977 15.7046C28.1016 15.8564 28.1406 15.9712 28.2129 16.0498C28.2852 16.1284 28.3887 16.168 28.5234 16.168C28.5938 16.168 28.6621 16.1616 28.7246 16.1499C28.7891 16.1367 28.8652 16.1118 28.9512 16.0757L28.9512 16.2676C28.877 16.2993 28.8066 16.3213 28.7422 16.3345C28.6777 16.3472 28.6016 16.354 28.5137 16.354ZM28.459 15.1494C28.3535 15.1494 28.2715 15.1831 28.2109 15.2505C28.1504 15.3174 28.1133 15.4111 28.1016 15.5312L28.7812 15.5312C28.7793 15.4062 28.752 15.3115 28.6953 15.2466C28.6387 15.1816 28.5605 15.1494 28.459 15.1494Z" fill="#202020" fill-opacity="1.000000" fill-rule="nonzero"/>
	<path id="Vector" d="M27.2852 16.354C27.0918 16.354 26.9434 16.2949 26.8359 16.1777C26.7285 16.0591 26.6758 15.8901 26.6758 15.6694C26.6758 15.4458 26.7305 15.2739 26.8379 15.1528C26.9453 15.0312 27.0996 14.9707 27.3008 14.9707C27.3652 14.9707 27.4297 14.9775 27.4922 14.9912C27.5566 15.0044 27.6094 15.0215 27.6504 15.0425L27.584 15.2246C27.4707 15.1826 27.375 15.1616 27.2949 15.1616C27.1621 15.1616 27.0625 15.2041 26.998 15.2891C26.9336 15.3735 26.9023 15.4995 26.9023 15.667C26.9023 15.8286 26.9336 15.9521 26.998 16.0381C27.0625 16.123 27.1562 16.1655 27.2832 16.1655C27.4004 16.1655 27.5156 16.1396 27.6289 16.0879L27.6289 16.2822C27.5371 16.3301 27.4219 16.354 27.2852 16.354Z" fill="#202020" fill-opacity="1.000000" fill-rule="nonzero"/>
	<path id="Vector" d="M26.4043 15.6597C26.4043 15.8784 26.3516 16.0493 26.2461 16.1714C26.1406 16.293 25.998 16.354 25.8145 16.354C25.6406 16.354 25.502 16.2998 25.4004 16.1924C25.2969 16.0835 25.2402 15.9312 25.2305 15.7354L24.8906 15.7354L24.8906 16.3296L24.6719 16.3296L24.6719 14.9951L24.8906 14.9951L24.8906 15.5503L25.2324 15.5503C25.25 15.3647 25.3105 15.2217 25.4121 15.1216C25.5137 15.021 25.6504 14.9707 25.8184 14.9707C26 14.9707 26.1406 15.0327 26.2461 15.1567C26.3516 15.2808 26.4043 15.4482 26.4043 15.6597ZM25.4531 15.6597C25.4531 15.8286 25.4824 15.9561 25.5391 16.0425C25.5977 16.1294 25.6895 16.1729 25.8164 16.1729C25.9434 16.1729 26.0352 16.1294 26.0918 16.0425C26.1504 15.9561 26.1777 15.8286 26.1777 15.6597C26.1777 15.4937 26.1484 15.3682 26.0918 15.2832C26.0332 15.1973 25.9434 15.1543 25.8164 15.1543C25.6895 15.1543 25.5977 15.1973 25.5391 15.2832C25.4824 15.3682 25.4531 15.4937 25.4531 15.6597Z" fill="#202020" fill-opacity="1.000000" fill-rule="nonzero"/>
	<path id="Vector" d="M24.4102 16.793L24.1973 16.793L24.1973 16.3296L23.2695 16.3296L23.2695 16.793L23.0605 16.793L23.0605 16.145L23.168 16.145C23.2754 15.9951 23.3594 15.8218 23.4199 15.6245C23.4785 15.4268 23.5098 15.2173 23.5137 14.9951L24.2148 14.9951L24.2148 16.145L24.4102 16.145L24.4102 16.793ZM24.0039 16.145L24.0039 15.1675L23.707 15.1675C23.6953 15.3467 23.6602 15.5269 23.6035 15.7075C23.5469 15.8872 23.4766 16.0332 23.3945 16.145L24.0039 16.145Z" fill="#202020" fill-opacity="1.000000" fill-rule="nonzero"/>
	<path id="Vector" d="M22.877 15.6597C22.877 15.8779 22.8203 16.0479 22.7109 16.1704C22.6016 16.2925 22.4492 16.354 22.2539 16.354C22.1328 16.354 22.0254 16.3257 21.9336 16.27C21.8398 16.2134 21.7676 16.1323 21.7188 16.0269C21.668 15.9214 21.6426 15.7993 21.6426 15.6597C21.6426 15.4429 21.6973 15.2739 21.8047 15.1528C21.9141 15.0312 22.0664 14.9707 22.2617 14.9707C22.4512 14.9707 22.5996 15.0327 22.709 15.1567C22.8203 15.2798 22.877 15.4478 22.877 15.6597ZM21.8691 15.6597C21.8691 15.8276 21.9023 15.9551 21.9668 16.0425C22.0332 16.1294 22.1309 16.1729 22.2598 16.1729C22.3867 16.1729 22.4844 16.1294 22.5508 16.0425C22.6172 15.9551 22.6504 15.8276 22.6504 15.6597C22.6504 15.4922 22.6172 15.3662 22.5488 15.2817C22.4824 15.1968 22.3848 15.1543 22.2559 15.1543C21.998 15.1543 21.8691 15.3228 21.8691 15.6597Z" fill="#202020" fill-opacity="1.000000" fill-rule="nonzero"/>
	<path id="Vector" d="M20.8164 16.354C20.6367 16.354 20.498 16.2896 20.4023 16.1606L20.3887 16.1606L20.3926 16.2104C20.3984 16.2734 20.4023 16.3301 20.4023 16.3794L20.4023 16.9277L20.1836 16.9277L20.1836 14.9951L20.3633 14.9951L20.3926 15.1772L20.4023 15.1772C20.4551 15.1045 20.5137 15.0518 20.582 15.0195C20.6504 14.9868 20.7285 14.9707 20.8184 14.9707C20.9922 14.9707 21.125 15.0312 21.2207 15.1519C21.3184 15.2715 21.3652 15.4409 21.3652 15.6597C21.3652 15.8779 21.3184 16.0479 21.2207 16.1704C21.125 16.2925 20.9902 16.354 20.8164 16.354ZM20.7793 15.1543C20.6465 15.1543 20.5508 15.1914 20.4922 15.2661C20.4336 15.3408 20.4043 15.4575 20.4023 15.6172L20.4023 15.6597C20.4023 15.8403 20.4316 15.9712 20.4922 16.0522C20.5527 16.1328 20.6504 16.1729 20.7832 16.1729C20.8965 16.1729 20.9824 16.1274 21.0449 16.0366C21.1094 15.9458 21.1406 15.8193 21.1406 15.6572C21.1406 15.4946 21.1094 15.3701 21.0449 15.2842C20.9824 15.1978 20.8945 15.1543 20.7793 15.1543Z" fill="#202020" fill-opacity="1.000000" fill-rule="nonzero"/>
	<path id="Vector" d="M18.8496 16.3296L18.6309 16.3296L18.6309 14.9951L19.7578 14.9951L19.7578 16.3296L19.5391 16.3296L19.5391 15.1821L18.8496 15.1821L18.8496 16.3296Z" fill="#202020" fill-opacity="1.000000" fill-rule="nonzero"/>
	<path id="Vector" d="M45.7656 17.9521C46.2344 17.9521 46.6738 18.04 47.0859 18.2163C47.4961 18.3921 47.8535 18.6333 48.1602 18.9395C48.4727 19.2393 48.7188 19.5947 48.8945 20.0054C49.0762 20.4155 49.168 20.8555 49.168 21.3247C49.168 21.8008 49.0801 22.2441 48.9043 22.6543C48.7344 23.0649 48.4961 23.4268 48.1895 23.7397C47.8828 24.0459 47.5254 24.2905 47.1152 24.4727C46.7109 24.6489 46.2734 24.7402 45.8047 24.7466C45.3281 24.7466 44.8828 24.6587 44.4648 24.4824C44.0547 24.3066 43.6934 24.0654 43.3809 23.7593C43.0742 23.4531 42.8301 23.0942 42.6465 22.6836C42.4707 22.2734 42.3828 21.8335 42.3828 21.3643C42.3828 20.895 42.4668 20.4551 42.6367 20.0444C42.8125 19.627 43.0547 19.2656 43.3613 18.959C43.666 18.6528 44.0254 18.4082 44.4355 18.2261C44.8535 18.0435 45.2969 17.9521 45.7656 17.9521ZM47.1934 22.772C47.3809 22.583 47.5254 22.3677 47.623 22.1265C47.7207 21.8853 47.7695 21.6279 47.7695 21.3545C47.7695 21.0806 47.7168 20.8232 47.6133 20.582C47.5156 20.3345 47.3691 20.1157 47.1738 19.9268C46.9844 19.7446 46.7695 19.6074 46.5273 19.5161C46.293 19.4185 46.0391 19.3696 45.7656 19.3696C45.2051 19.3696 44.7363 19.5654 44.3574 19.9561C44.168 20.1455 44.0254 20.3604 43.9277 20.6016C43.8301 20.8359 43.7812 21.0903 43.7812 21.3643C43.7812 21.6377 43.8301 21.895 43.9277 22.1362C44.0312 22.3774 44.1816 22.5928 44.377 22.7817C44.5664 22.9707 44.7773 23.1138 45.0117 23.2119C45.2539 23.3096 45.5117 23.3584 45.7852 23.3584C46.0645 23.3521 46.3262 23.2998 46.5664 23.2021C46.8086 23.104 47.0176 22.9609 47.1934 22.772Z" fill="#202020" fill-opacity="1.000000" fill-rule="nonzero"/>
	<path id="Vector" d="M41.4492 20.4453C41.6523 20.6733 41.7988 20.9438 41.8906 21.2563C41.9883 21.5693 42.0371 21.9048 42.0371 22.2637C42.0371 22.6284 41.9844 22.9639 41.8809 23.2705C41.7832 23.5703 41.6289 23.8311 41.4199 24.0527C41.2188 24.2739 40.9648 24.4468 40.6582 24.5708C40.3516 24.688 39.9961 24.7466 39.5918 24.7466L37.0117 24.7466L37.0117 17.9521L39.3281 17.9521C39.5898 17.9521 39.834 17.9976 40.0625 18.0889C40.2891 18.1738 40.4883 18.2974 40.6582 18.4604C40.834 18.6167 40.9688 18.8062 41.0586 19.0273C41.1562 19.2427 41.2051 19.4805 41.2051 19.7412C41.2051 19.8975 41.1797 20.0347 41.127 20.1519C41.252 20.2363 41.3594 20.3345 41.4492 20.4453ZM38.4102 23.3486L39.6309 23.3486C39.6973 23.3486 39.7852 23.3291 39.8965 23.29C40.0137 23.2441 40.123 23.1792 40.2285 23.0942C40.3398 23.0034 40.4336 22.8892 40.5117 22.7524C40.5898 22.6089 40.6289 22.4429 40.6289 22.2539C40.6289 22.084 40.5957 21.9312 40.5312 21.7944C40.4727 21.6509 40.3945 21.5269 40.2969 21.4229C40.2051 21.3184 40.0977 21.2402 39.9746 21.188C39.8574 21.1294 39.7363 21.1001 39.6113 21.1001L38.4102 21.1001L38.4102 23.3486ZM39.5723 19.7119C39.6504 19.7119 39.7266 19.7119 39.7988 19.7119C39.791 19.666 39.7754 19.624 39.75 19.585C39.709 19.5327 39.6602 19.4902 39.6016 19.4575C39.5508 19.4253 39.4941 19.4023 39.4355 19.3892C39.377 19.3696 39.332 19.3599 39.2988 19.3599L38.4102 19.3599L38.4102 19.7119L39.5723 19.7119Z" fill="#202020" fill-opacity="1.000000" fill-rule="nonzero"/>
	<path id="Vector" d="M32.3008 17.9521L33.7578 17.9521L36.4082 23.7593L36.4082 24.7466L35.293 24.7466L34.5117 22.9966L31.5391 22.9966L30.7676 24.7466L29.6523 24.7466L29.6523 23.7593L32.3008 17.9521ZM33.0254 19.6631L32.1641 21.5986L33.8848 21.5986L33.0254 19.6631Z" fill="#202020" fill-opacity="1.000000" fill-rule="nonzero"/>
	<path id="Vector" d="M25.5918 21.5986L26.7832 21.5986C26.9082 21.5986 27.0293 21.5728 27.1465 21.5205C27.2695 21.4619 27.377 21.3804 27.4688 21.2759C27.5664 21.1719 27.6445 21.0513 27.7031 20.9146C27.7676 20.771 27.8008 20.6147 27.8008 20.4453C27.8008 20.2559 27.7617 20.0933 27.6836 19.9561C27.6055 19.813 27.5117 19.6987 27.4004 19.6143C27.2949 19.5229 27.1855 19.4575 27.0684 19.4185C26.957 19.373 26.8691 19.3501 26.8027 19.3501L25.5918 19.3501L25.5918 21.5986ZM25.5918 22.9966L25.5918 24.7466L24.1934 24.7466L24.1934 17.9521L26.7637 17.9521C27.168 17.9521 27.5234 18.0142 27.8301 18.1377C28.1367 18.2554 28.3906 18.4248 28.5918 18.6465C28.8008 18.8677 28.9551 19.1318 29.0527 19.438C29.1562 19.7378 29.209 20.0703 29.209 20.4355C29.209 20.8003 29.1602 21.1392 29.0625 21.4521C28.9707 21.7583 28.8242 22.0288 28.6211 22.2637C28.4258 22.4917 28.1719 22.6709 27.8594 22.8013C27.5527 22.9316 27.1875 22.9966 26.7637 22.9966L25.5918 22.9966Z" fill="#202020" fill-opacity="1.000000" fill-rule="nonzero"/>
	<path id="Vector" d="M21.9258 17.9521L21.9258 19.3501L20.127 19.3501L20.127 19.7021L21.3086 19.7021C21.7324 19.7021 22.0977 19.7671 22.4043 19.8975C22.7168 20.0278 22.9707 20.2104 23.166 20.4453C23.3691 20.6733 23.5156 20.9438 23.6074 21.2563C23.7051 21.5693 23.7539 21.9048 23.7539 22.2637C23.7539 22.6284 23.7012 22.9639 23.5977 23.2705C23.5 23.5703 23.3457 23.8311 23.1367 24.0527C22.9355 24.2739 22.6816 24.4468 22.375 24.5708C22.0684 24.688 21.7129 24.7466 21.3086 24.7466L18.7285 24.7466L18.7285 17.9521L21.9258 17.9521ZM20.127 23.3486L21.3477 23.3486C21.4141 23.3486 21.502 23.3291 21.6133 23.29C21.7305 23.2441 21.8398 23.1792 21.9453 23.0942C22.0566 23.0034 22.1504 22.8892 22.2285 22.7524C22.3066 22.6089 22.3457 22.4429 22.3457 22.2539C22.3457 22.084 22.3125 21.9312 22.248 21.7944C22.1895 21.6509 22.1113 21.5269 22.0137 21.4229C21.9219 21.3184 21.8145 21.2402 21.6914 21.188C21.5742 21.1294 21.4531 21.1001 21.3281 21.1001L20.127 21.1001L20.127 23.3486Z" fill="#202020" fill-opacity="1.000000" fill-rule="nonzero"/>
</svg>
