<svg width="40.121094" height="25.866211" viewBox="0 0 40.1211 25.8662" fill="none" xmlns="http://www.w3.org/2000/svg" xmlns:xlink="http://www.w3.org/1999/xlink">
	<desc>
			Created with Pixso.
	</desc>
	<defs/>
	<path id="Vector" d="M24.7383 18.7222C24.7383 21.1304 22.748 23.0815 20.2852 23.0815C17.8242 23.0815 15.8359 21.1304 15.8359 18.7222C15.8359 16.3135 17.8281 14.3623 20.2852 14.3623C22.7441 14.3623 24.7383 16.3135 24.7383 18.7222Z" fill="#202020" fill-opacity="1.000000" fill-rule="nonzero"/>
	<path id="Vector" d="M17.9453 16.5532C17.9453 16.1035 18.3223 15.7344 18.7812 15.7344C19.2402 15.7344 19.6172 16.0996 19.6172 16.5532C19.6172 17.0068 19.2441 17.3721 18.7812 17.3721C18.3184 17.3721 17.9453 17.0068 17.9453 16.5532ZM32.0547 15.2217L29.9043 15.2217L29.9043 12.5625L32.0918 12.5625C32.7695 12.5625 33.375 13.1528 33.375 13.8569C33.375 14.6685 32.7363 15.2217 32.0547 15.2217ZM32.4297 20.4336L29.9043 20.4336L29.9043 17.6636L32.4297 17.6636C33.2578 17.6636 33.9023 18.2534 33.9023 19.0317C33.9023 19.8804 33.3008 20.4336 32.4297 20.4336ZM32.957 23.0557C35.6348 23.0557 37.2559 21.5435 37.2559 19.1758C37.2559 17.7705 36.541 16.627 35.2207 16.0737C36.2402 15.4097 36.4668 14.4473 36.4668 13.4512C36.4668 11.1611 34.6934 10.0137 32.2051 10.0137L24.627 10.0137L24.627 12.5625L26.8145 12.5625L26.8145 20.4336L24.627 20.4336L24.627 23.0557L32.9609 23.0557L32.957 23.0557ZM15.9492 10.0137L10.8984 10.0137L10.8984 15.2256L7.8418 15.2256L7.8418 10.0137L2.78906 10.0137L2.78906 12.5625L4.97656 12.5625L4.97656 20.4336L2.78906 20.4336L2.78906 23.0557L7.8418 23.0557L7.8418 17.6636L10.8984 17.6636L10.8984 23.0557L15.9492 23.0557L15.9492 20.4336L13.8379 20.4336L13.8379 12.5625L15.9492 12.5625L15.9492 10.0137ZM38.4238 16C39.4023 16.7007 40.1211 17.9219 40.1211 19.3271C40.1211 21.4697 39.4395 22.7607 38.2344 23.9448C37.0273 25.1289 35.0273 25.8662 32.6523 25.8662L21.8301 25.8662L21.8301 22.8125C23.5234 22.1963 24.7324 20.5996 24.7324 18.7256C24.7324 16.8521 23.5234 15.2515 21.8301 14.6353L21.8301 4.9165L24.623 4.9165L24.623 7.35449L27.375 7.35449L27.375 2.69971L13.1973 2.69971L13.1973 7.35449L15.9492 7.35449L15.9492 4.9165L18.7402 4.9165L18.7402 14.6318C17.0449 15.2476 15.8379 16.8481 15.8379 18.7222C15.8379 20.5957 17.0449 22.1963 18.7402 22.8086L18.7402 25.8628L0 25.8628L0 17.6597L2.22461 17.6597L2.22461 15.2217L0 15.2217L0 7.20312L10.334 7.20312L10.334 0L30.3223 0L30.3223 7.20312L31.7188 7.20312C33.793 7.20312 35.793 7.68262 37.0723 8.6084C38.4688 9.60791 39.334 11.0835 39.334 13.1157C39.334 13.9639 39.1465 15.2217 38.4277 15.9966L38.4238 16Z" fill="#FFFFFF" fill-opacity="1.000000" fill-rule="nonzero"/>
</svg>
